<?xml version="1.0" encoding="UTF-8"?>
<svg id="Modo_de_isolamento" data-name="Modo de isolamento" xmlns="http://www.w3.org/2000/svg" xmlns:xlink="http://www.w3.org/1999/xlink" version="1.1" viewBox="0 0 291.9 147.1">
  <defs>
    <style>
      .cls-1 {
        fill: #0075cd;
      }

      .cls-1, .cls-2, .cls-3, .cls-4 {
        stroke-width: 0px;
      }

      .cls-2 {
        fill: url(#Gradiente_sem_nome_3);
      }

      .cls-3 {
        fill: url(#Gradiente_sem_nome_4);
      }

      .cls-4 {
        fill: #fff;
      }
    </style>
    <linearGradient id="Gradiente_sem_nome_3" data-name="Gradiente sem nome 3" x1="26.7" y1="1177.5" x2="72.6" y2="1177.5" gradientTransform="translate(0 -1065.4)" gradientUnits="userSpaceOnUse">
      <stop offset="0" stop-color="#0d3a5e"/>
      <stop offset="1" stop-color="#0075cd"/>
    </linearGradient>
    <linearGradient id="Gradiente_sem_nome_4" data-name="Gradiente sem nome 4" x1="66.9" y1="1101.7" x2="66.9" y2="1084" gradientTransform="translate(0 -1065.4)" gradientUnits="userSpaceOnUse">
      <stop offset="0" stop-color="#0d3a5e"/>
      <stop offset="1" stop-color="#0075cd"/>
    </linearGradient>
  </defs>
  <path class="cls-4" d="M19.5,37.3c-9.4,0-16.2-7.6-16.2-17.6S10.2,2.8,19.5,2.8h18v3.2h-18c-7.5,0-12.9,5.6-12.9,13.9s5.5,14.2,12.9,14.2h18v3.2h-18Z"/>
  <path class="cls-4" d="M85.1,37.3l-5.9-9.9-1.7-2.8-10.8-17.9-18.2,30.6h-3.7L65.3,3.3c.4-.7.8-1.1,1.6-1.1s1.2.4,1.5,1.1l20.4,33.9h-3.7Z"/>
  <path class="cls-4" d="M97.4,37.3v-3.2h25.6c4.5,0,6.8-2.8,6.8-6.5s-2.4-6.4-6.8-6.4h-16.5c-6,0-9.6-3.8-9.6-9.2s3.4-9.2,9.7-9.2h24.6v3.2h-24.6c-4.1,0-6.4,2.6-6.4,6.2s2.4,6.1,6.3,6.1h16.5c6.4,0,9.8,3.2,9.8,9.5s-3.2,9.6-9.8,9.6h-25.6Z"/>
  <path class="cls-4" d="M142.8,37.3v-3.2h25.6c4.5,0,6.8-2.8,6.8-6.5s-2.4-6.4-6.8-6.4h-16.5c-6,0-9.6-3.8-9.6-9.2s3.4-9.2,9.7-9.2h24.6v3.2h-24.6c-4.1,0-6.4,2.6-6.4,6.2s2.4,6.1,6.3,6.1h16.5c6.4,0,9.8,3.2,9.8,9.5s-3.2,9.6-9.8,9.6h-25.6Z"/>
  <path class="cls-4" d="M188.4,37.3V2.8h3.2v34.5h-3.2Z"/>
  <path class="cls-4" d="M205.6,7.4v29.9h-3V4.5c0-1.3.7-2.1,1.8-2.1s1.1.2,1.5.8l28.2,29.4V2.8h3v33c0,1.3-.7,2-1.7,2s-1.2-.3-1.7-.8l-28.1-29.6h0Z"/>
  <path class="cls-4" d="M263,37.3c-9.3,0-16.2-7.6-16.2-17.6s6.9-16.9,16.2-16.9h8.1c9.6,0,16.3,6.9,16.3,16.9s-6.8,17.6-16.3,17.6h-8.1ZM271.1,34.1c7.6,0,13.1-6.1,13.1-14.2s-5.4-13.9-13.1-13.9h-8.1c-7.5,0-12.9,5.6-12.9,13.9s5.5,14.2,12.9,14.2h8.1Z"/>
  <path class="cls-1" d="M25.2,123.3l-.2-22.2h44.9c7.8,0,12.5-4.2,12.5-10.9s-4.7-10.9-12.5-10.9H26.7v67.6H3.3V56.5h66.4c22.3,0,35.5,12.9,35.5,32.9s-13.1,33.7-35.5,33.7H25v.2h.2Z"/>
  <path class="cls-1" d="M125.1,146.9V56.5h23.4v90.4h-23.4Z"/>
  <path class="cls-1" d="M259.8,146.9l-31-32.7-30.7,32.7h-30.1l46.7-47.2-43-43.2h32l27.3,28.7,26.9-28.7h30.1l-43.3,43.4,47.4,47.2-32.2-.2h-.1Z"/>
  <rect class="cls-2" x="26.7" y="101.1" width="46.1" height="22"/>
  <path class="cls-3" d="M73.6,25.4l-6.8-6.7-6.7,6.7c-1.7,1.7-1.7,4.3,0,6,1.5,1.4,4.1,1.5,5.9.3l-1.4,4.5h4.6l-1.5-4.5c.8.5,1.7.8,2.7.8s2.4-.4,3.2-1.2c1.8-1.6,1.8-4.2,0-5.9h0Z"/>
</svg>