<svg xmlns="http://www.w3.org/2000/svg" width="416" height="189" viewBox="0 0 490 223" fill="none"><rect x="0.5" y="10.5" width="489" height="60" rx="19.5" stroke="url(#paint0_linear_7_696)"></rect><g clip-path="url(#clip0_7_696)"><path d="M15.15 42.7812C15.4875 42.4437 16.0687 42.4437 16.4062 42.7812L21.2187 47.5937C22.1062 48.4812 23.2875 48.9687 24.5375 48.9687H25.4812L19.4125 55.0375C17.5187 56.8812 14.4437 56.8812 12.55 55.0375L6.45622 48.95H7.03747C8.28747 48.95 9.46872 48.4625 10.3562 47.575L15.15 42.7812ZM16.4062 38.1812C16.0062 38.525 15.4937 38.5312 15.15 38.1812L10.3562 33.3875C9.46872 32.4437 8.28747 32.0125 7.03747 32.0125H6.45622L12.5437 25.9225C14.4437 24.0258 17.5187 24.0258 19.4125 25.9225L25.4875 31.9937H24.5375C23.2875 31.9937 22.1062 32.4812 21.2187 33.3687L16.4062 38.1812ZM7.03747 33.4187C7.89997 33.4187 8.69372 33.7687 9.35622 34.3812L14.15 39.175C14.6 39.5687 15.1875 39.85 15.7812 39.85C16.3687 39.85 16.9562 39.5687 17.4062 39.175L22.2187 34.3625C22.8312 33.7562 23.675 33.4062 24.5375 33.4062H26.8937L30.5375 37.05C32.4312 38.9437 32.4312 42.0187 30.5375 43.9125L26.8937 47.5562H24.5375C23.675 47.5562 22.8312 47.2062 22.2187 46.5937L17.4062 41.7812C16.5375 40.9125 15.0187 40.9125 14.15 41.7875L9.35622 46.575C8.69372 47.1875 7.89997 47.5375 7.03747 47.5375H5.04872L1.42247 43.9125C-0.474156 42.0187 -0.474156 38.9437 1.42247 37.05L5.04872 33.4187H7.03747Z" fill="#ADC90E"></path></g><path d="M51.906 32.8C56.274 32.8 57.834 35.192 57.834 38.234V38.39C57.834 41.432 56.352 43.824 51.984 43.824H46.42V51H44.34V32.8H51.906ZM52.114 41.9C55.052 41.9 55.754 40.262 55.754 38.364C55.754 36.362 54.974 34.724 52.036 34.724H46.42V41.9H52.114ZM66.2005 36.362C69.7105 36.362 71.6085 38.182 71.6085 41.822V51H69.5285V48.608C68.5925 50.272 66.7205 51.338 64.5885 51.338H64.5365C61.6765 51.338 59.7785 49.57 59.7785 46.944C59.7785 43.668 62.8465 42.16 69.5285 42.16V41.51C69.5285 39.3 68.3325 38.286 66.0445 38.286H65.9665C64.3285 38.286 62.5865 39.196 61.6765 40.158L60.4025 38.78C61.6765 37.376 63.8085 36.362 66.1745 36.362H66.2005ZM64.6665 49.414C67.4745 49.414 69.5025 47.152 69.5285 43.98C64.1725 44.006 61.8585 44.942 61.8585 47.048C61.8585 48.504 62.9245 49.414 64.6405 49.414H64.6665ZM86.3525 36.7H88.4325V50.376C88.4325 54.614 85.8065 57.318 81.7245 57.318C79.3065 57.318 77.3825 56.512 75.7445 54.822L77.0445 53.418C78.3445 54.744 79.8785 55.394 81.6985 55.394C84.5845 55.394 86.3525 53.47 86.3525 50.376V48.842C85.3385 50.454 83.3365 51.338 81.4125 51.338H81.2565C77.4085 51.338 74.8605 48.192 74.8605 43.954V43.746C74.8605 39.508 77.4085 36.362 81.2565 36.362H81.4125C83.3365 36.362 85.3385 37.246 86.3525 38.858V36.7ZM81.7245 49.414C84.4025 49.414 86.3525 47.308 86.3525 43.902V43.798C86.3525 40.392 84.4025 38.286 81.7245 38.286H81.5685C78.8905 38.286 76.9405 40.392 76.9405 43.798V43.902C76.9405 47.308 78.8905 49.414 81.5685 49.414H81.7245ZM98.1165 36.362C101.627 36.362 103.525 38.182 103.525 41.822V51H101.445V48.608C100.509 50.272 98.6365 51.338 96.5045 51.338H96.4525C93.5925 51.338 91.6945 49.57 91.6945 46.944C91.6945 43.668 94.7625 42.16 101.445 42.16V41.51C101.445 39.3 100.249 38.286 97.9605 38.286H97.8825C96.2445 38.286 94.5025 39.196 93.5925 40.158L92.3185 38.78C93.5925 37.376 95.7245 36.362 98.0905 36.362H98.1165ZM96.5825 49.414C99.3905 49.414 101.419 47.152 101.445 43.98C96.0885 44.006 93.7745 44.942 93.7745 47.048C93.7745 48.504 94.8405 49.414 96.5565 49.414H96.5825ZM122.741 36.362C125.757 36.362 127.577 38.338 127.577 41.562V51H125.497V41.562C125.497 39.508 124.405 38.286 122.533 38.286H122.481C119.959 38.286 118.607 40.496 118.607 43.798V51H116.527V41.562C116.527 39.508 115.435 38.286 113.563 38.286H113.511C110.989 38.286 109.637 40.496 109.637 43.798V51H107.557V36.7H109.637V38.728C110.443 37.272 111.873 36.362 113.719 36.362H113.771C115.929 36.362 117.489 37.376 118.191 39.144C119.049 37.48 120.635 36.362 122.689 36.362H122.741ZM144.185 43.746V44.708H132.927C133.239 47.594 135.085 49.414 137.841 49.414H137.997C139.687 49.414 141.325 48.66 142.313 47.412L143.587 48.79C142.287 50.428 140.233 51.338 137.893 51.338C133.629 51.338 130.821 48.426 130.821 43.954V43.746C130.821 39.378 133.577 36.362 137.555 36.362H137.711C141.611 36.362 144.185 39.274 144.185 43.746ZM137.555 38.286C135.007 38.286 133.291 40.028 132.953 42.784H142.053C141.741 39.976 140.155 38.286 137.711 38.286H137.555ZM154.127 36.362C157.377 36.362 159.223 38.286 159.223 41.718V51H157.143V41.718C157.143 39.456 156.051 38.286 153.919 38.286H153.867C151.267 38.286 149.525 40.496 149.525 43.798V51H147.445V36.7H149.525V38.806C150.435 37.324 152.151 36.362 154.075 36.362H154.127ZM170.154 38.52H166.514V47.854C166.514 49.05 166.982 49.414 168.36 49.414C168.724 49.414 169.608 49.388 170.154 49.362V51.156C169.608 51.234 168.568 51.338 167.892 51.338C165.552 51.338 164.434 50.116 164.434 47.516V38.52H162.224V36.7H164.434V34.386L166.514 34.048V36.7H170.154V38.52ZM179.631 36.362C183.739 36.362 186.365 39.508 186.365 43.746V43.954C186.365 48.192 183.739 51.338 179.631 51.338H179.475C175.367 51.338 172.741 48.192 172.741 43.954V43.746C172.741 39.508 175.367 36.362 179.475 36.362H179.631ZM179.631 38.286H179.475C176.745 38.286 174.821 40.392 174.821 43.798V43.902C174.821 47.308 176.745 49.414 179.475 49.414H179.631C182.361 49.414 184.285 47.308 184.285 43.902V43.798C184.285 40.392 182.361 38.286 179.631 38.286ZM194.634 36.362C196.922 36.362 198.768 37.064 200.12 38.468L198.82 39.872C197.624 38.754 196.35 38.286 194.634 38.286C192.736 38.286 191.358 39.248 191.358 40.548C191.358 41.588 192.19 42.056 195.154 42.68C199.08 43.486 200.51 44.682 200.51 47.1C200.51 49.596 198.248 51.338 195.05 51.338C192.476 51.338 190.188 50.298 188.836 48.53L190.136 47.1C191.41 48.634 193.048 49.414 195.024 49.414C196.974 49.414 198.43 48.452 198.43 47.126C198.43 45.826 197.598 45.28 194.686 44.682C190.812 43.928 189.278 42.758 189.278 40.548C189.278 38.026 191.41 36.362 194.634 36.362ZM220.949 36.7H223.185L217.725 51H215.203L209.743 36.7H211.979L216.477 48.738L220.949 36.7ZM227.309 32.28C228.141 32.28 228.687 32.774 228.687 33.528C228.687 34.308 228.141 34.802 227.309 34.802C226.451 34.802 225.905 34.308 225.905 33.528C225.905 32.774 226.451 32.28 227.309 32.28ZM228.349 36.7V51H226.269V36.7H228.349ZM238.501 36.362C242.011 36.362 243.909 38.182 243.909 41.822V51H241.829V48.608C240.893 50.272 239.021 51.338 236.889 51.338H236.837C233.977 51.338 232.079 49.57 232.079 46.944C232.079 43.668 235.147 42.16 241.829 42.16V41.51C241.829 39.3 240.633 38.286 238.345 38.286H238.267C236.629 38.286 234.887 39.196 233.977 40.158L232.703 38.78C233.977 37.376 236.109 36.362 238.475 36.362H238.501ZM236.967 49.414C239.775 49.414 241.803 47.152 241.829 43.98C236.473 44.006 234.159 44.942 234.159 47.048C234.159 48.504 235.225 49.414 236.941 49.414H236.967ZM263.616 32.8C268.036 32.8 270.012 34.88 270.012 38.676V38.78C270.012 42.576 268.062 44.63 263.668 44.63H259.664V51H255.348V32.8H263.616ZM263.382 40.808C264.994 40.808 265.592 40.002 265.592 38.754C265.592 37.454 264.916 36.648 263.148 36.648H259.664V40.808H263.382ZM272.918 32.8H277.234V51H272.918V32.8ZM297.144 51H292.1L288.33 45.254L284.638 51H279.594L285.808 41.64L279.854 32.8H284.898L288.486 38.26L291.996 32.8H297.04L291.034 41.874L297.144 51Z" fill="white"></path><rect x="0.5" y="81.5" width="489" height="60" rx="19.5" stroke="url(#paint1_linear_7_696)"></rect><path d="M9 98H27C30.3 98 33 100.7 33 104C33 106.55 31.5 108.65 29.25 109.55V104C29.25 103.4 28.95 102.8 28.65 102.35C28.35 101.9 27.6 101.75 27 101.75H9C8.4 101.75 7.8 102.05 7.35 102.35C6.9 102.65 6.75 103.4 6.75 104V109.55C4.5 108.65 3 106.55 3 104C3 100.7 5.7 98 9 98Z" fill="#ADC90E"></path><path fill-rule="evenodd" clip-rule="evenodd" d="M27 104V122C27 123.65 25.65 125 24 125H12C10.35 125 9 123.65 9 122V104H27ZM15.75 115.25L16.8 116.3V110C16.8 109.4 17.25 108.8 18 108.8C18.75 108.8 19.2 109.25 19.2 110V116.3L20.25 115.25C20.7 114.8 21.45 114.8 21.9 115.25C22.35 115.7 22.35 116.45 21.9 116.9L19.95 118.85C18.9 119.9 17.25 119.9 16.2 118.85L14.25 116.9C13.8 116.45 13.8 115.7 14.25 115.25C14.7 114.8 15.3 114.8 15.75 115.25Z" fill="#ADC90E"></path><path d="M54.346 103.462C57.154 103.462 59.494 104.372 61.158 106.114L59.806 107.57C58.376 106.114 56.556 105.386 54.346 105.386C51.616 105.386 49.874 106.686 49.874 108.714C49.874 110.3 51.044 110.924 54.996 111.704C59.806 112.692 61.6 114.148 61.6 117.008C61.6 120.154 58.818 122.338 54.892 122.338C51.746 122.338 48.938 121.09 47.17 118.828L48.522 117.372C50.082 119.348 52.318 120.414 54.84 120.414C57.596 120.414 59.52 119.062 59.52 117.06C59.52 115.24 58.428 114.512 54.398 113.68C49.718 112.718 47.794 111.34 47.794 108.714C47.794 105.594 50.446 103.462 54.346 103.462ZM70.4798 107.362C73.9898 107.362 75.8878 109.182 75.8878 112.822V122H73.8078V119.608C72.8718 121.272 70.9998 122.338 68.8678 122.338H68.8158C65.9558 122.338 64.0578 120.57 64.0578 117.944C64.0578 114.668 67.1258 113.16 73.8078 113.16V112.51C73.8078 110.3 72.6118 109.286 70.3238 109.286H70.2458C68.6078 109.286 66.8658 110.196 65.9558 111.158L64.6818 109.78C65.9558 108.376 68.0878 107.362 70.4538 107.362H70.4798ZM68.9458 120.414C71.7538 120.414 73.7818 118.152 73.8078 114.98C68.4518 115.006 66.1378 115.942 66.1378 118.048C66.1378 119.504 67.2038 120.414 68.9198 120.414H68.9458ZM90.6318 107.7H92.7118V127.98H90.6318V119.842C89.6178 121.454 87.6158 122.338 85.6918 122.338H85.5358C81.6878 122.338 79.1398 119.192 79.1398 114.954V114.746C79.1398 110.508 81.6878 107.362 85.5358 107.362H85.6918C87.6158 107.362 89.6178 108.246 90.6318 109.858V107.7ZM86.0038 120.414C88.6818 120.414 90.6318 118.308 90.6318 114.902V114.798C90.6318 111.392 88.6818 109.286 86.0038 109.286H85.8478C83.1698 109.286 81.2198 111.392 81.2198 114.798V114.902C81.2198 118.308 83.1698 120.414 85.8478 120.414H86.0038ZM106.059 107.7H108.139V122H106.059V119.894C105.175 121.376 103.511 122.338 101.639 122.338H101.587C98.5708 122.338 96.7508 120.362 96.7508 117.138V107.7H98.8308V117.138C98.8308 119.192 99.9228 120.414 101.795 120.414H101.847C104.369 120.414 106.059 118.204 106.059 114.902V107.7ZM124.75 114.746V115.708H113.492C113.804 118.594 115.65 120.414 118.406 120.414H118.562C120.252 120.414 121.89 119.66 122.878 118.412L124.152 119.79C122.852 121.428 120.798 122.338 118.458 122.338C114.194 122.338 111.386 119.426 111.386 114.954V114.746C111.386 110.378 114.142 107.362 118.12 107.362H118.276C122.176 107.362 124.75 110.274 124.75 114.746ZM118.12 109.286C115.572 109.286 113.856 111.028 113.518 113.784H122.618C122.306 110.976 120.72 109.286 118.276 109.286H118.12ZM135.239 103.8H139.555V122H135.239V103.8ZM150.988 107.31C154.108 107.31 155.902 109.286 155.902 112.744V122H151.794V113.472C151.794 111.834 151.092 111.028 149.74 111.028H149.714C147.868 111.028 146.932 112.198 146.932 114.616V122H142.824V107.7H146.932V109.234C147.66 108.116 149.246 107.31 150.91 107.31H150.988ZM164.411 107.31C166.933 107.31 169.039 108.09 170.261 109.468L168.233 111.678C167.063 110.82 165.945 110.456 164.515 110.456C163.527 110.456 162.773 110.976 162.773 111.678C162.773 112.276 163.215 112.51 165.529 112.978C168.961 113.68 170.599 115.266 170.495 117.736C170.365 120.596 168.051 122.39 164.489 122.39C161.889 122.39 159.497 121.35 158.067 119.608L160.095 117.346C161.421 118.62 162.825 119.244 164.307 119.244C165.529 119.244 166.387 118.724 166.387 117.944C166.387 117.268 165.919 116.982 164.073 116.618C160.199 115.838 158.561 114.382 158.639 111.86C158.743 109.13 161.057 107.31 164.411 107.31ZM181.625 111.34H178.063V117.268C178.063 118.516 178.609 118.88 180.065 118.88C180.455 118.88 181.001 118.854 181.625 118.828V122C181.183 122.13 179.935 122.39 178.687 122.39C175.749 122.39 173.929 120.986 173.929 117.19V111.34H171.927V107.7H173.929V105.334L178.063 104.658V107.7H181.625V111.34ZM189.961 107.31C194.147 107.31 196.383 109.39 196.383 113.342V122H192.275V119.946C191.339 121.532 189.831 122.39 188.115 122.39H188.037C185.333 122.39 183.435 120.57 183.435 118.074C183.435 114.876 185.957 113.238 192.275 113.186C192.197 111.522 191.339 110.82 189.571 110.82H189.545C188.401 110.82 187.075 111.392 186.113 112.172L183.799 109.676C185.203 108.272 187.621 107.31 189.909 107.31H189.961ZM189.389 119.036C191.079 119.036 192.275 117.684 192.275 115.786V115.63C189.155 115.656 187.491 116.228 187.491 117.528C187.491 118.412 188.193 119.036 189.363 119.036H189.389ZM207.432 107.31C210.552 107.31 212.346 109.286 212.346 112.744V122H208.238V113.472C208.238 111.834 207.536 111.028 206.184 111.028H206.158C204.312 111.028 203.376 112.198 203.376 114.616V122H199.268V107.7H203.376V109.234C204.104 108.116 205.69 107.31 207.354 107.31H207.432ZM224.078 111.34H220.516V117.268C220.516 118.516 221.062 118.88 222.518 118.88C222.908 118.88 223.454 118.854 224.078 118.828V122C223.636 122.13 222.388 122.39 221.14 122.39C218.202 122.39 216.382 120.986 216.382 117.19V111.34H214.38V107.7H216.382V105.334L220.516 104.658V107.7H224.078V111.34ZM232.831 107.518C234.737 107.518 236.193 107.934 237.199 108.766C238.221 109.581 238.733 110.837 238.733 112.536V122H236.029L235.275 120.076H235.171C234.772 120.579 234.356 120.995 233.923 121.324C233.507 121.653 233.021 121.887 232.467 122.026C231.929 122.182 231.262 122.26 230.465 122.26C229.633 122.26 228.879 122.104 228.203 121.792C227.544 121.463 227.024 120.969 226.643 120.31C226.261 119.634 226.071 118.785 226.071 117.762C226.071 116.254 226.599 115.145 227.657 114.434C228.714 113.706 230.3 113.307 232.415 113.238L234.885 113.16V112.536C234.885 111.791 234.685 111.245 234.287 110.898C233.905 110.551 233.368 110.378 232.675 110.378C231.981 110.378 231.305 110.482 230.647 110.69C229.988 110.881 229.329 111.123 228.671 111.418L227.397 108.792C228.159 108.393 229 108.081 229.919 107.856C230.855 107.631 231.825 107.518 232.831 107.518ZM233.377 115.474C232.129 115.509 231.262 115.734 230.777 116.15C230.291 116.566 230.049 117.112 230.049 117.788C230.049 118.377 230.222 118.802 230.569 119.062C230.915 119.305 231.366 119.426 231.921 119.426C232.753 119.426 233.455 119.183 234.027 118.698C234.599 118.195 234.885 117.493 234.885 116.592V115.422L233.377 115.474ZM235.093 102.084C235.335 102.465 235.647 102.899 236.029 103.384C236.427 103.852 236.835 104.311 237.251 104.762C237.667 105.213 238.031 105.594 238.343 105.906V106.244H235.769C235.318 105.967 234.824 105.646 234.287 105.282C233.749 104.901 233.255 104.476 232.805 104.008C232.354 104.476 231.869 104.892 231.349 105.256C230.829 105.62 230.343 105.949 229.893 106.244H227.319V105.906C227.648 105.577 228.012 105.195 228.411 104.762C228.827 104.311 229.225 103.852 229.607 103.384C230.005 102.899 230.326 102.465 230.569 102.084H235.093ZM250.367 107.31C253.487 107.31 255.281 109.286 255.281 112.744V122H251.173V113.472C251.173 111.834 250.471 111.028 249.119 111.028H249.093C247.247 111.028 246.311 112.198 246.311 114.616V122H242.203V107.7H246.311V109.234C247.039 108.116 248.625 107.31 250.289 107.31H250.367ZM271.642 115.058V115.864H261.762C261.996 117.84 263.244 118.984 265.246 118.984H265.35C266.754 118.984 268.106 118.386 268.964 117.372L271.122 119.712C269.822 121.402 267.56 122.39 265.064 122.39C260.644 122.39 257.576 119.348 257.576 114.954V114.746C257.576 110.404 260.54 107.31 264.726 107.31H264.882C269.042 107.31 271.642 110.3 271.642 115.058ZM264.778 110.612C263.218 110.612 262.1 111.6 261.788 113.16H267.482C267.3 111.444 266.416 110.612 264.882 110.612H264.778ZM280.779 107.31C285.043 107.31 288.033 110.43 288.033 114.746V114.954C288.033 119.244 285.017 122.39 280.779 122.39H280.623C276.385 122.39 273.369 119.244 273.369 114.954V114.746C273.369 110.43 276.359 107.31 280.623 107.31H280.779ZM280.753 111.028H280.649C278.751 111.028 277.503 112.484 277.503 114.824V114.876C277.503 117.216 278.751 118.672 280.649 118.672H280.753C282.651 118.672 283.925 117.216 283.925 114.876V114.824C283.925 112.484 282.651 111.028 280.753 111.028Z" fill="white"></path><rect x="0.5" y="152.5" width="489" height="60" rx="19.5" stroke="url(#paint2_linear_7_696)"></rect><path d="M31.4853 183.665C31.5347 184.846 31.1135 185.999 30.3141 186.871C29.5146 187.742 28.4022 188.26 27.2209 188.313C27.1518 188.316 27.0828 188.317 27.014 188.317C26.7001 188.317 26.3872 188.283 26.0806 188.216C25.1708 189.621 23.9779 190.82 22.5781 191.737C21.1783 192.655 19.6025 193.27 17.9514 193.543C17.7561 194.117 17.3665 194.604 16.8499 194.921C16.3334 195.238 15.7223 195.364 15.1224 195.279C14.5225 195.193 13.9714 194.9 13.5644 194.451C13.1574 194.002 12.9201 193.425 12.8934 192.819C12.8668 192.214 13.0526 191.618 13.4186 191.135C13.7846 190.652 14.3079 190.312 14.898 190.174C15.4881 190.036 16.1079 190.108 16.6503 190.379C17.1926 190.649 17.6235 191.1 17.8684 191.655C20.1929 191.225 22.2928 189.993 23.8022 188.174C25.3116 186.354 26.1347 184.063 26.1281 181.699C26.1281 176.115 21.5846 171.571 16 171.571C10.4153 171.571 5.87183 176.115 5.87183 181.699C5.87152 183.426 6.31286 185.124 7.15389 186.633C7.18239 186.682 7.20379 186.736 7.21745 186.792C7.29869 187.017 7.29 187.266 7.1932 187.485C7.09639 187.705 6.91888 187.879 6.69739 187.971C6.15505 188.199 5.57255 188.317 4.98414 188.317C4.91489 188.317 4.84549 188.315 4.77595 188.312C3.59513 188.259 2.48343 187.74 1.68461 186.869C0.885785 185.998 0.465044 184.846 0.514639 183.665C0.534577 183.194 0.523452 182.773 0.512577 182.367C0.502452 181.985 0.49189 181.589 0.509265 181.176C0.561119 180.023 1.05714 178.935 1.89342 178.139C2.72971 177.344 3.8414 176.903 4.99564 176.908C6.84914 172.667 11.0837 169.696 16 169.696C20.9162 169.696 25.1508 172.667 27.0043 176.908C28.1587 176.902 29.2707 177.342 30.1072 178.138C30.9436 178.934 31.4394 180.022 31.4906 181.175C31.508 181.589 31.4975 181.984 31.4873 182.367C31.4765 182.773 31.4653 183.194 31.4853 183.665ZM23.8628 181.699C23.8623 182.904 23.5852 184.092 23.0528 185.173C22.5204 186.253 21.7469 187.197 20.7921 187.932C19.8372 188.666 18.7264 189.171 17.5454 189.408C16.3644 189.645 15.1447 189.608 13.9803 189.299L10.7978 191.137C10.6372 191.23 10.4527 191.273 10.2677 191.261C10.0826 191.249 9.90534 191.182 9.75822 191.069C9.61111 190.956 9.50077 190.802 9.44117 190.627C9.38157 190.451 9.37538 190.262 9.42339 190.083L10.2368 187.048C8.88977 185.592 8.14029 183.683 8.13745 181.699C8.13745 177.363 11.6644 173.835 16 173.835C20.3355 173.835 23.8628 177.363 23.8628 181.699ZM13.814 181.699C13.814 181.451 13.7152 181.212 13.5394 181.036C13.3636 180.861 13.1252 180.762 12.8765 180.762H12.875C12.6896 180.762 12.5085 180.817 12.3546 180.921C12.2006 181.024 12.0808 181.17 12.0101 181.342C11.9394 181.513 11.9211 181.702 11.9574 181.883C11.9938 182.065 12.0832 182.232 12.2144 182.363C12.3456 182.494 12.5126 182.583 12.6944 182.619C12.8763 182.655 13.0647 182.636 13.2359 182.565C13.4071 182.494 13.5534 182.374 13.6563 182.22C13.7593 182.066 13.8142 181.885 13.8142 181.699H13.814ZM16.9376 181.699C16.9376 181.669 16.9359 181.638 16.9326 181.607C16.9297 181.577 16.9251 181.546 16.919 181.516C16.9134 181.486 16.9058 181.456 16.8964 181.427C16.8877 181.398 16.8771 181.369 16.8658 181.341C16.8546 181.312 16.8408 181.285 16.8265 181.258C16.8122 181.231 16.7965 181.205 16.7796 181.179C16.7625 181.154 16.7441 181.129 16.7245 181.105C16.7053 181.081 16.6846 181.058 16.6627 181.037C16.6415 181.015 16.6183 180.994 16.5946 180.974C16.5708 180.956 16.5458 180.937 16.5201 180.92C16.4947 180.903 16.4685 180.887 16.4415 180.873C16.4145 180.859 16.3865 180.846 16.3583 180.834C16.3301 180.822 16.3013 180.812 16.2721 180.803C16.2136 180.784 16.1532 180.772 16.0921 180.767C16.0003 180.758 15.9076 180.762 15.8171 180.78C15.7869 180.786 15.7571 180.794 15.7278 180.803C15.6985 180.812 15.6697 180.822 15.6415 180.834C15.6134 180.846 15.5853 180.859 15.5584 180.873C15.5315 180.887 15.5053 180.903 15.4796 180.92C15.4539 180.937 15.429 180.956 15.4059 180.974C15.3815 180.994 15.359 181.015 15.3371 181.037C15.3152 181.058 15.2945 181.081 15.2752 181.105C15.2558 181.129 15.2377 181.154 15.2209 181.179C15.2037 181.205 15.1879 181.231 15.1734 181.258C15.159 181.285 15.146 181.312 15.1346 181.341C15.1227 181.369 15.1123 181.398 15.1033 181.427C15.0946 181.456 15.0871 181.486 15.0809 181.516C15.0747 181.546 15.0701 181.577 15.0671 181.607C15.064 181.638 15.0627 181.669 15.0627 181.699C15.0627 181.73 15.064 181.761 15.0671 181.792C15.0702 181.822 15.0748 181.852 15.0809 181.882C15.0871 181.912 15.0946 181.942 15.1033 181.972C15.1123 182.001 15.1227 182.03 15.1346 182.058C15.146 182.086 15.159 182.114 15.1734 182.141C15.1877 182.168 15.204 182.194 15.2209 182.22C15.2377 182.245 15.2559 182.27 15.2752 182.294C15.2947 182.318 15.3154 182.341 15.3371 182.362C15.359 182.384 15.3815 182.405 15.4059 182.424C15.4294 182.444 15.454 182.462 15.4796 182.479C15.5053 182.496 15.5315 182.512 15.5584 182.526C15.6127 182.554 15.6693 182.578 15.7278 182.596C15.7571 182.605 15.7871 182.612 15.8171 182.619C15.8773 182.631 15.9387 182.637 16.0002 182.637C16.2485 182.636 16.4866 182.538 16.6627 182.362C16.7059 182.319 16.745 182.271 16.7796 182.22C16.7965 182.194 16.8121 182.168 16.8265 182.141C16.8408 182.114 16.854 182.086 16.8658 182.058C16.8777 182.03 16.8877 182.001 16.8964 181.972C16.9057 181.942 16.9133 181.913 16.919 181.882C16.9251 181.852 16.9296 181.822 16.9326 181.792C16.9358 181.761 16.9374 181.73 16.9375 181.699L16.9376 181.699ZM20.0626 181.699C20.0626 181.451 19.9639 181.212 19.7881 181.036C19.6122 180.861 19.3738 180.762 19.1251 180.762H19.1233C18.938 180.762 18.7569 180.817 18.603 180.921C18.449 181.024 18.3292 181.17 18.2585 181.342C18.1878 181.513 18.1695 181.702 18.2059 181.883C18.2423 182.065 18.3317 182.232 18.4629 182.363C18.5941 182.494 18.7611 182.583 18.9429 182.619C19.1247 182.655 19.3131 182.636 19.4843 182.565C19.6555 182.494 19.8018 182.374 19.9048 182.22C20.0077 182.066 20.0626 181.885 20.0626 181.699Z" fill="#ACC90B"></path><path d="M57.392 193L55.13 187.332H46.966L44.704 193H42.52L49.878 174.8H52.218L59.576 193H57.392ZM47.72 185.408H54.376L51.048 177.062L47.72 185.408ZM67.7786 180.52H64.1386V189.854C64.1386 191.05 64.6066 191.414 65.9846 191.414C66.3486 191.414 67.2326 191.388 67.7786 191.362V193.156C67.2326 193.234 66.1926 193.338 65.5166 193.338C63.1766 193.338 62.0586 192.116 62.0586 189.516V180.52H59.8486V178.7H62.0586V176.386L64.1386 176.048V178.7H67.7786V180.52ZM83.7304 185.746V186.708H72.4724C72.7844 189.594 74.6304 191.414 77.3864 191.414H77.5424C79.2324 191.414 80.8704 190.66 81.8584 189.412L83.1324 190.79C81.8324 192.428 79.7784 193.338 77.4384 193.338C73.1744 193.338 70.3664 190.426 70.3664 185.954V185.746C70.3664 181.378 73.1224 178.362 77.1004 178.362H77.2564C81.1564 178.362 83.7304 181.274 83.7304 185.746ZM77.1004 180.286C74.5524 180.286 72.8364 182.028 72.4984 184.784H81.5984C81.2864 181.976 79.7004 180.286 77.2564 180.286H77.1004ZM93.6722 178.362C96.9222 178.362 98.7682 180.286 98.7682 183.718V193H96.6882V183.718C96.6882 181.456 95.5962 180.286 93.4642 180.286H93.4122C90.8122 180.286 89.0702 182.496 89.0702 185.798V193H86.9902V178.7H89.0702V180.806C89.9802 179.324 91.6962 178.362 93.6202 178.362H93.6722ZM113.521 174.28H115.601V193H113.521V190.842C112.507 192.454 110.505 193.338 108.581 193.338H108.425C104.577 193.338 102.029 190.192 102.029 185.954V185.746C102.029 181.508 104.577 178.362 108.425 178.362H108.581C110.505 178.362 112.507 179.246 113.521 180.858V174.28ZM108.893 191.414C111.571 191.414 113.521 189.308 113.521 185.902V185.798C113.521 182.392 111.571 180.286 108.893 180.286H108.737C106.059 180.286 104.109 182.392 104.109 185.798V185.902C104.109 189.308 106.059 191.414 108.737 191.414H108.893ZM121.303 174.28C122.135 174.28 122.681 174.774 122.681 175.528C122.681 176.308 122.135 176.802 121.303 176.802C120.445 176.802 119.899 176.308 119.899 175.528C119.899 174.774 120.445 174.28 121.303 174.28ZM122.343 178.7V193H120.263V178.7H122.343ZM142.037 178.362C145.053 178.362 146.873 180.338 146.873 183.562V193H144.793V183.562C144.793 181.508 143.701 180.286 141.829 180.286H141.777C139.255 180.286 137.903 182.496 137.903 185.798V193H135.823V183.562C135.823 181.508 134.731 180.286 132.859 180.286H132.807C130.285 180.286 128.933 182.496 128.933 185.798V193H126.853V178.7H128.933V180.728C129.739 179.272 131.169 178.362 133.015 178.362H133.067C135.225 178.362 136.785 179.376 137.487 181.144C138.345 179.48 139.931 178.362 141.985 178.362H142.037ZM163.482 185.746V186.708H152.224C152.536 189.594 154.382 191.414 157.138 191.414H157.294C158.984 191.414 160.622 190.66 161.61 189.412L162.884 190.79C161.584 192.428 159.53 193.338 157.19 193.338C152.926 193.338 150.118 190.426 150.118 185.954V185.746C150.118 181.378 152.874 178.362 156.852 178.362H157.008C160.908 178.362 163.482 181.274 163.482 185.746ZM156.852 180.286C154.304 180.286 152.588 182.028 152.25 184.784H161.35C161.038 181.976 159.452 180.286 157.008 180.286H156.852ZM173.424 178.362C176.674 178.362 178.52 180.286 178.52 183.718V193H176.44V183.718C176.44 181.456 175.348 180.286 173.216 180.286H173.164C170.564 180.286 168.822 182.496 168.822 185.798V193H166.742V178.7H168.822V180.806C169.732 179.324 171.448 178.362 173.372 178.362H173.424ZM189.45 180.52H185.81V189.854C185.81 191.05 186.278 191.414 187.656 191.414C188.02 191.414 188.904 191.388 189.45 191.362V193.156C188.904 193.234 187.864 193.338 187.188 193.338C184.848 193.338 183.73 192.116 183.73 189.516V180.52H181.52V178.7H183.73V176.386L185.81 176.048V178.7H189.45V180.52ZM198.928 178.362C203.036 178.362 205.662 181.508 205.662 185.746V185.954C205.662 190.192 203.036 193.338 198.928 193.338H198.772C194.664 193.338 192.038 190.192 192.038 185.954V185.746C192.038 181.508 194.664 178.362 198.772 178.362H198.928ZM198.928 180.286H198.772C196.042 180.286 194.118 182.392 194.118 185.798V185.902C194.118 189.308 196.042 191.414 198.772 191.414H198.928C201.658 191.414 203.582 189.308 203.582 185.902V185.798C203.582 182.392 201.658 180.286 198.928 180.286ZM228.202 174.8H232.518V193H228.202V185.642H220.766V193H216.45V174.8H220.766V181.794H228.202V174.8ZM244.449 178.7H248.557V193H244.449V191.128C243.669 192.454 242.057 193.39 240.367 193.39H240.289C237.403 193.39 235.687 191.388 235.687 187.982V178.7H239.795V187.332C239.795 188.814 240.523 189.672 241.771 189.672H241.823C243.565 189.672 244.449 188.45 244.449 186.084V178.7ZM267.578 178.31C270.516 178.31 272.31 180.338 272.31 183.666V193H268.202V184.368C268.202 182.86 267.552 182.028 266.408 182.028H266.382C264.718 182.028 263.938 183.25 263.938 185.616V193H259.804V184.368C259.804 182.86 259.18 182.028 258.036 182.028H257.984C256.32 182.028 255.54 183.25 255.54 185.616V193H251.432V178.7H255.54V180.234C256.242 179.142 257.698 178.31 259.206 178.31H259.284C261.156 178.31 262.534 179.142 263.288 180.598C264.38 179.116 265.784 178.31 267.5 178.31H267.578ZM281.125 178.31C285.311 178.31 287.547 180.39 287.547 184.342V193H283.439V190.946C282.503 192.532 280.995 193.39 279.279 193.39H279.201C276.497 193.39 274.599 191.57 274.599 189.074C274.599 185.876 277.121 184.238 283.439 184.186C283.361 182.522 282.503 181.82 280.735 181.82H280.709C279.565 181.82 278.239 182.392 277.277 183.172L274.963 180.676C276.367 179.272 278.785 178.31 281.073 178.31H281.125ZM280.553 190.036C282.243 190.036 283.439 188.684 283.439 186.786V186.63C280.319 186.656 278.655 187.228 278.655 188.528C278.655 189.412 279.357 190.036 280.527 190.036H280.553ZM298.596 178.31C301.716 178.31 303.51 180.286 303.51 183.744V193H299.402V184.472C299.402 182.834 298.7 182.028 297.348 182.028H297.322C295.476 182.028 294.54 183.198 294.54 185.616V193H290.432V178.7H294.54V180.234C295.268 179.116 296.854 178.31 298.518 178.31H298.596ZM308.977 172.72C310.433 172.72 311.395 173.604 311.395 174.852C311.395 176.126 310.433 177.01 308.977 177.01C307.469 177.01 306.533 176.126 306.533 174.852C306.533 173.604 307.469 172.72 308.977 172.72ZM311.031 178.7V193H306.923V178.7H311.031ZM319.029 189.334H325.737V193H313.803V189.516L320.277 182.366H314.037V178.7H325.477V182.184L319.029 189.334ZM334.09 178.31C338.276 178.31 340.512 180.39 340.512 184.342V193H336.404V190.946C335.468 192.532 333.96 193.39 332.244 193.39H332.166C329.462 193.39 327.564 191.57 327.564 189.074C327.564 185.876 330.086 184.238 336.404 184.186C336.326 182.522 335.468 181.82 333.7 181.82H333.674C332.53 181.82 331.204 182.392 330.242 183.172L327.928 180.676C329.332 179.272 331.75 178.31 334.038 178.31H334.09ZM333.518 190.036C335.208 190.036 336.404 188.684 336.404 186.786V186.63C333.284 186.656 331.62 187.228 331.62 188.528C331.62 189.412 332.322 190.036 333.492 190.036H333.518ZM353.095 174.28H357.229V193H353.095V191.31C352.263 192.636 350.755 193.39 349.065 193.39H348.987C345.295 193.39 342.799 190.322 342.799 185.954V185.746C342.799 181.352 345.269 178.31 348.883 178.31H348.987C350.651 178.31 352.185 178.934 353.095 180.104V174.28ZM350.053 189.672C351.873 189.672 353.095 188.112 353.095 185.876V185.824C353.095 183.562 351.873 182.028 350.053 182.028H349.923C348.103 182.028 346.933 183.562 346.933 185.824V185.876C346.933 188.138 348.103 189.672 349.923 189.672H350.053ZM367.068 178.31C371.332 178.31 374.322 181.43 374.322 185.746V185.954C374.322 190.244 371.306 193.39 367.068 193.39H366.912C362.674 193.39 359.658 190.244 359.658 185.954V185.746C359.658 181.43 362.648 178.31 366.912 178.31H367.068ZM367.042 182.028H366.938C365.04 182.028 363.792 183.484 363.792 185.824V185.876C363.792 188.216 365.04 189.672 366.938 189.672H367.042C368.94 189.672 370.214 188.216 370.214 185.876V185.824C370.214 183.484 368.94 182.028 367.042 182.028ZM390.615 189.152H397.973V193H384.245V190.166C392.227 183.016 393.111 182.054 393.111 180.442C393.111 179.142 392.045 178.258 390.641 178.258C389.185 178.258 387.937 179.012 386.715 180.624L384.245 177.868C385.831 175.684 388.327 174.41 390.979 174.41C395.009 174.41 397.557 176.62 397.557 180.182C397.557 182.964 395.945 185.122 390.615 189.152ZM412.619 185.2H415.739V188.944H412.619V193H408.303V188.944H399.489V185.954L406.379 174.8H412.619V185.2ZM404.117 185.2H408.303V178.414L404.117 185.2ZM426.942 174.436L420.026 193H416.516L423.432 174.436H426.942ZM427.854 174.8H441.582V177.634C435.914 184.862 434.718 187.54 434.718 193H430.402C430.402 187.202 431.65 184.108 436.304 178.648H427.854V174.8Z" fill="white"></path><defs><linearGradient id="paint0_linear_7_696" x1="0" y1="40.5" x2="490" y2="40.5" gradientUnits="userSpaceOnUse"><stop stop-color="#556307" stop-opacity="0"></stop><stop offset="1" stop-color="#ADC90E"></stop></linearGradient><linearGradient id="paint1_linear_7_696" x1="0" y1="111.5" x2="490" y2="111.5" gradientUnits="userSpaceOnUse"><stop stop-color="#556307" stop-opacity="0"></stop><stop offset="1" stop-color="#ADC90E"></stop></linearGradient><linearGradient id="paint2_linear_7_696" x1="0" y1="182.5" x2="490" y2="182.5" gradientUnits="userSpaceOnUse"><stop stop-color="#556307" stop-opacity="0"></stop><stop offset="1" stop-color="#ADC90E"></stop></linearGradient><clipPath id="clip0_7_696"><rect width="32" height="32" fill="white" transform="translate(0 24.5)"></rect></clipPath></defs></svg>