<?xml version="1.0" encoding="UTF-8"?>
<svg id="Camada_1" data-name="Camada 1" xmlns="http://www.w3.org/2000/svg" xmlns:xlink="http://www.w3.org/1999/xlink" version="1.1" viewBox="0 0 252.3 96.1">
  <defs>
    <style>
      .cls-1 {
        fill: url(#Gradiente_sem_nome_3);
      }

      .cls-1, .cls-2, .cls-3, .cls-4 {
        stroke-width: 0px;
      }

      .cls-5, .cls-6 {
        font-family: Gotham-Black, Gotham;
        font-weight: 800;
      }

      .cls-2 {
        fill: #006dc1;
      }

      .cls-3 {
        fill: url(#Gradiente_sem_nome_3-3);
      }

      .cls-4 {
        fill: url(#Gradiente_sem_nome_3-2);
      }

      .cls-7 {
        font-family: Gotham-Medium, Gotham;
        font-weight: 500;
      }

      .cls-8 {
        fill: #fff;
        font-size: 12px;
      }

      .cls-6 {
        letter-spacing: 0em;
      }
    </style>
    <linearGradient id="Gradiente_sem_nome_3" data-name="Gradiente sem nome 3" x1="3.4" y1="16.2" x2="249" y2="16.2" gradientUnits="userSpaceOnUse">
      <stop offset="0" stop-color="#2e3235"/>
      <stop offset=".8" stop-color="#006dc1"/>
    </linearGradient>
    <linearGradient id="Gradiente_sem_nome_3-2" data-name="Gradiente sem nome 3" y1="48.3" y2="48.3" xlink:href="#Gradiente_sem_nome_3"/>
    <linearGradient id="Gradiente_sem_nome_3-3" data-name="Gradiente sem nome 3" y1="80.4" y2="80.4" xlink:href="#Gradiente_sem_nome_3"/>
  </defs>
  <path class="cls-1" d="M244.1,6.1c1.6,0,2.9,1.3,2.9,2.9v14.5c0,1.6-1.3,2.9-2.9,2.9H8.3c-1.6,0-2.9-1.3-2.9-2.9v-14.5c0-1.6,1.3-2.9,2.9-2.9h235.9M244.1,4.1H8.3c-2.7,0-4.9,2.2-4.9,4.9v14.5c0,2.7,2.2,4.9,4.9,4.9h235.9c2.7,0,4.9-2.2,4.9-4.9v-14.5c0-2.7-2.2-4.9-4.9-4.9h0Z"/>
  <g id="_5zdAsM.tif" data-name="5zdAsM.tif">
    <g>
      <path class="cls-2" d="M6.2,15.7c0-.1,0-.3.1-.4.2-.5.4-1,.8-1.3.8-.8,1.5-1.5,2.3-2.3,0,0,.1-.1.2-.1.5,0,1.1,0,1.6,0,.6,0,1,.3,1.4.7,1,1,2,2,3,3,.8.8,1.6.8,2.4,0,1-1,1.9-1.9,2.9-2.9.5-.5,1.1-.8,1.8-.8.3,0,.7,0,1,0,.1,0,.1,0,.2.1.8.8,1.6,1.6,2.4,2.4,1.2,1.2,1.2,3.2,0,4.4-.8.8-1.5,1.5-2.3,2.3,0,0-.2.1-.3.1-.3,0-.7,0-1,0-.7,0-1.3-.2-1.7-.7-1-1-2-2-3-3-.7-.7-1.6-.7-2.4,0-1,1-2,2-2.9,2.9-.5.5-1.1.8-1.8.7-.4,0-.8,0-1.2,0-.1,0-.2,0-.3-.1-.8-.8-1.6-1.5-2.3-2.3-.4-.4-.7-.9-.8-1.5,0,0,0-.2,0-.2v-1Z"/>
      <path class="cls-2" d="M10.5,21.8c.4,0,.7,0,1.1,0,.7,0,1.3-.4,1.8-.9,1-1,2-2,3-3,.4-.4.7-.4,1.1,0,1,1,2,1.9,2.9,2.9.7.7,1.4,1,2.4,1,0,0,.1,0,.2,0,0,.1,0,.1-.1.2-1.3,1.3-2.5,2.6-3.8,3.8-1.3,1.2-3.2,1.3-4.5,0-1.3-1.3-2.6-2.6-3.9-3.9,0,0,0,0,0-.1Z"/>
      <path class="cls-2" d="M10.5,10.6c.1-.1.2-.2.2-.2,1.2-1.2,2.5-2.5,3.7-3.7,1.4-1.3,3.3-1.3,4.7,0,1.3,1.3,2.6,2.6,3.9,3.9-.3,0-.5,0-.8,0-.6,0-1.2.3-1.6.8-1,1-2.1,2.1-3.1,3.1-.5.5-.7.5-1.2,0-.9-.9-1.9-1.8-2.8-2.8-.8-.8-1.6-1.2-2.7-1.1,0,0-.2,0-.3,0Z"/>
    </g>
  </g>
  <text class="cls-8" transform="translate(36.6 20.4)"><tspan class="cls-7" x="0" y="0">Pagamentos via </tspan><tspan class="cls-5" x="99.9" y="0">PIX</tspan></text>
  <path class="cls-4" d="M244.1,38.2c1.6,0,2.9,1.3,2.9,2.9v14.5c0,1.6-1.3,2.9-2.9,2.9H8.3c-1.6,0-2.9-1.3-2.9-2.9v-14.5c0-1.6,1.3-2.9,2.9-2.9h235.9M244.1,36.2H8.3c-2.7,0-4.9,2.2-4.9,4.9v14.5c0,2.7,2.2,4.9,4.9,4.9h235.9c2.7,0,4.9-2.2,4.9-4.9v-14.5c0-2.7-2.2-4.9-4.9-4.9h0Z"/>
  <text class="cls-8" transform="translate(36.6 52.5)"><tspan class="cls-7" x="0" y="0">Saque </tspan><tspan class="cls-5" x="41.1" y="0">Instantâneo</tspan></text>
  <g>
    <path class="cls-2" d="M9.4,42h14.6v.3c0,4.7,0,9.4,0,14.2,0,1.6-1,2.6-2.6,2.6-3.2,0-6.3,0-9.5,0-1.5,0-2.6-1-2.6-2.6,0-4.7,0-9.5,0-14.2v-.3ZM15.7,51.9s0,0,0,0c-.2-.3-.5-.5-.7-.8-.4-.4-.9-.4-1.2,0-.4.3-.4.9,0,1.3.6.6,1.2,1.2,1.8,1.8.7.7,1.9.7,2.6,0,.7-.6,1.3-1.2,1.9-1.9.3-.3.3-.7,0-1-.2-.3-.5-.5-.9-.5-.2,0-.4.2-.6.3-.3.2-.5.5-.8.8,0-.2,0-.3,0-.4,0-1.6,0-3.1,0-4.7,0-.5-.3-.9-.7-1-.7-.1-1.2.3-1.2,1,0,1.6,0,3.1,0,4.7,0,.1,0,.2,0,.3Z"/>
    <path class="cls-2" d="M7.5,46.5c-.8-.3-1.5-.8-2.1-1.5-1.2-1.6-1.4-3.3-.5-5.1.9-1.8,2.3-2.7,4.3-2.7,4.9,0,9.8,0,14.8,0,2.3,0,4.2,1.6,4.7,3.9.5,2.2-.6,4.4-2.6,5.4,0,0-.2,0-.3.1v-.3c0-1.3,0-2.7,0-4,0-.6-.2-1.1-.5-1.5-.2-.3-.5-.4-.9-.5-.2,0-.4,0-.7,0-4.7,0-9.5,0-14.2,0-.6,0-1.1.2-1.5.5-.5.3-.5.8-.5,1.3,0,1.4,0,2.8,0,4.2,0,.1,0,.2,0,.3Z"/>
  </g>
  <path class="cls-3" d="M244.1,70.3c1.6,0,2.9,1.3,2.9,2.9v14.5c0,1.6-1.3,2.9-2.9,2.9H8.3c-1.6,0-2.9-1.3-2.9-2.9v-14.5c0-1.6,1.3-2.9,2.9-2.9h235.9M244.1,68.3H8.3c-2.7,0-4.9,2.2-4.9,4.9v14.5c0,2.7,2.2,4.9,4.9,4.9h235.9c2.7,0,4.9-2.2,4.9-4.9v-14.5c0-2.7-2.2-4.9-4.9-4.9h0Z"/>
  <text class="cls-8" transform="translate(36.6 84.6)"><tspan class="cls-7" x="0" y="0">Atendimento </tspan><tspan class="cls-6" x="83.1" y="0">Humanizado 24/7</tspan></text>
  <g>
    <path class="cls-2" d="M3.3,80.9c0-.7,0-1.4.2-2.1.4-1.6,1.8-2.7,3.4-2.8.2,0,.3,0,.4-.3,1.7-3.3,4.3-5.4,8-5.9,4.5-.6,8.8,1.8,10.7,5.9,0,.2.2.2.4.2,2,.1,3.6,1.8,3.6,3.8,0,.9,0,1.8,0,2.7-.2,2-2.3,3.6-4.3,3.3-.2,0-.3,0-.5.2-1.6,2.3-3.8,3.8-6.6,4.3-.2,0-.3.1-.4.3-.5,1-1.5,1.5-2.6,1.2-1-.3-1.7-1.2-1.7-2.2,0-1.1.8-2,1.9-2.2.9-.2,1.8.3,2.3,1.1.1.2.2.2.4.2,3.6-.8,6.3-3.7,6.8-7.4.6-4.6-2.6-8.9-7.1-9.7-4.7-.8-9.2,2.2-10.1,6.8-.4,2-.1,4,.8,5.9.4.7.2,1.2-.6,1.4-2.5.8-5-1-5.1-3.6,0-.4,0-.8,0-1.1,0,0,0,0,0,0Z"/>
    <path class="cls-2" d="M16.6,87c-.4,0-.9-.1-1.4-.2-.1,0-.3,0-.4,0-.8.5-1.7,1-2.5,1.4-.6.3-1.2,0-1.2-.6,0-.1,0-.3,0-.4.2-.8.4-1.5.6-2.3,0-.2,0-.3,0-.4-1.7-2-2.2-4.4-1.2-6.8,1-2.5,2.9-4,5.5-4.3,3.8-.5,7.2,2.3,7.6,6.1.3,3.6-2.2,6.8-5.8,7.3-.3,0-.6,0-1.1,0ZM16.7,81c.4,0,.8-.4.8-.8,0-.4-.4-.8-.8-.8-.4,0-.8.4-.8.8,0,.4.4.8.8.8ZM14,81c.4,0,.8-.4.8-.8,0-.4-.4-.8-.8-.8-.4,0-.8.4-.8.8,0,.4.4.8.8.8ZM19.4,81c.4,0,.8-.4.8-.8,0-.4-.4-.8-.8-.8-.4,0-.8.4-.8.8,0,.4.4.8.8.8Z"/>
  </g>
</svg>